# xmcd CD database file
#
# Track frame offsets:
#	150
#	4146
#	10333
#	18352
#	21781
#	29800
#	37522
#	41977
#	45406
#	58366
#	65116
#	70003
#	76672
#	87688
#	91873
#	99703
#	107086
#	135541
#	150229
#	171536
#	196048
#	211488
#
# Disc length: 3006 seconds
#
# Revision: 2
# Processed by: cddbd v1.5.2PL0 Copyright (c) Steve Scherf et al.
# Submitted via: CDex 1.51
#
DISCID=220bbc16
DTITLE=Alexandre Scriabine - Oeuvres pour piano  (Vladimir Horowitz, piano)
DYEAR=1900
DGENRE=Classique
TTITLE0=Prélude  N° 01, Op.11
TTITLE1=Prélude  N° 10
TTITLE2=Prélude  N° 09
TTITLE3=Prélude  N° 03
TTITLE4=Prélude  N° 16
TTITLE5=Prélude  N° 13
TTITLE6=Prélude  N° 14
TTITLE7=Prélude  N° 02, Op.15
TTITLE8=Prélude  N° 01, Op.16
TTITLE9=Prélude  N° 06, Op.13
TTITLE10=Prélude  N° 04, Op.16
TTITLE11=Prélude  N° 01, Op.27
TTITLE12=Prélude  N° 02, Op.51
TTITLE13=Prélude  N° 03, Op.48
TTITLE14=Prélude  N° 02, Op.67
TTITLE15=Prélude  N° 02, Op.59
TTITLE16=Sonate  N° 03, Op.23
TTITLE17=Sonate  N° 03, Op.24
TTITLE18=Sonate  N° 04, Op.43
TTITLE19=Sonate  N° 05, Op.32
TTITLE20=Étude  Op.08
TTITLE21=Étude  Op.42
EXTD=
EXTT0=
EXTT1=
EXTT2=
EXTT3=
EXTT4=
EXTT5=
EXTT6=
EXTT7=
EXTT8=
EXTT9=
EXTT10=
EXTT11=
EXTT12=
EXTT13=
EXTT14=
EXTT15=
EXTT16=
EXTT17=
EXTT18=
EXTT19=
EXTT20=
EXTT21=
PLAYORDER=
